<mxfile host="app.diagrams.net" agent="Mozilla/5.0 (Windows NT 10.0; Win64; x64) AppleWebKit/537.36 (KHTML, like Gecko) Chrome/140.0.0.0 Safari/537.36 Edg/140.0.0.0" version="28.2.1">
  <diagram name="Sistema de Gestión de Mantenimiento Urbano" id="zYSmzPxhmlY4ja3M6Btz">
    <mxGraphModel dx="1591" dy="877" grid="1" gridSize="10" guides="1" tooltips="1" connect="1" arrows="1" fold="1" page="1" pageScale="1" pageWidth="827" pageHeight="1169" math="0" shadow="0">
      <root>
        <mxCell id="0" />
        <mxCell id="1" parent="0" />
        <mxCell id="zrlMxklKueZQlDghgLl7-18" value="" style="group" vertex="1" connectable="0" parent="1">
          <mxGeometry x="180" y="95" width="1290" height="980" as="geometry" />
        </mxCell>
        <mxCell id="zrlMxklKueZQlDghgLl7-1" value="" style="rounded=0;whiteSpace=wrap;html=1;spacingTop=0;" vertex="1" parent="zrlMxklKueZQlDghgLl7-18">
          <mxGeometry y="290" width="840" height="420" as="geometry" />
        </mxCell>
        <mxCell id="zrlMxklKueZQlDghgLl7-2" value="&lt;div&gt;&lt;br&gt;&lt;/div&gt;&lt;div&gt;&lt;br&gt;&lt;/div&gt;&lt;div&gt;&lt;br&gt;&lt;/div&gt;&lt;div&gt;&lt;br&gt;&lt;/div&gt;Administrador&lt;br&gt;(persona)&lt;br&gt;&lt;br&gt;Interacción:&lt;br&gt;Gestionar solicitudes, programa&lt;br&gt;trabajos, solicita financiamiento" style="shape=actor;whiteSpace=wrap;html=1;fillColor=#4472C4;strokeColor=#0D5091;fontColor=#FFFFFF;align=center;verticalAlign=middle;fontSize=12;fontStyle=0" vertex="1" parent="zrlMxklKueZQlDghgLl7-18">
          <mxGeometry x="535" y="55" width="180" height="170" as="geometry" />
        </mxCell>
        <mxCell id="zrlMxklKueZQlDghgLl7-4" value="Frontend Web&lt;br&gt;[Container: React]&lt;br&gt;&lt;br&gt;Interfaz utilizada por administradores&lt;br&gt;para gestionar solicitudes, programar&lt;br&gt;trabajos, actualizar estado de la solicitud" style="rounded=1;whiteSpace=wrap;html=1;fillColor=#bac8d3;strokeColor=#23445d;align=center;verticalAlign=middle;fontSize=12;fontStyle=0" vertex="1" parent="zrlMxklKueZQlDghgLl7-18">
          <mxGeometry x="460" y="315" width="320" height="120" as="geometry" />
        </mxCell>
        <mxCell id="zrlMxklKueZQlDghgLl7-5" value="Backend API&lt;br&gt;[Container: Java, Spring Boot, Docker]&lt;br&gt;&lt;br&gt;Coordina la lógica del negocio y da acceso&lt;br&gt;a los datos. Gestiona solicitudes,&lt;br&gt;programaciones y financiamiento" style="rounded=1;whiteSpace=wrap;html=1;fillColor=#bac8d3;strokeColor=#23445d;align=center;verticalAlign=middle;fontSize=12;fontStyle=0" vertex="1" parent="zrlMxklKueZQlDghgLl7-18">
          <mxGeometry x="460" y="550" width="320" height="120" as="geometry" />
        </mxCell>
        <mxCell id="zrlMxklKueZQlDghgLl7-6" value="Base de Datos&#xa;[Container: PostgreSQL]&#xa;&#xa;Almacena información de solicitudes,&#xa;programaciones, estados de trabajo,&#xa;solicitudes de financiamiento" style="shape=cylinder3;whiteSpace=wrap;html=1;boundedLbl=1;backgroundOutline=1;size=15;fillColor=#bac8d3;strokeColor=#23445d;align=center;verticalAlign=middle;fontSize=12;fontStyle=0" vertex="1" parent="zrlMxklKueZQlDghgLl7-18">
          <mxGeometry x="30" y="545" width="220" height="130" as="geometry" />
        </mxCell>
        <mxCell id="zrlMxklKueZQlDghgLl7-7" value="Sistema de Participación Ciudadana&#xa;[Software System]&#xa;&#xa;Sistema que recibe reportes de ciudadanos y&#xa;envía solicitudes al sistema de mantenimiento.&#xa;Recibe actualizaciones de estado." style="rounded=1;whiteSpace=wrap;html=1;fillColor=#FFE6CC;strokeColor=#D79B00;fontColor=#000000;align=center;verticalAlign=middle;fontSize=12;fontStyle=0" vertex="1" parent="zrlMxklKueZQlDghgLl7-18">
          <mxGeometry x="510" y="810" width="230" height="170" as="geometry" />
        </mxCell>
        <mxCell id="zrlMxklKueZQlDghgLl7-8" value="Sistema de Finanzas&#xa;[Software System]&#xa;&#xa;Sistema que gestiona el presupuesto municipal.&#xa;Recibe solicitudes de financiamiento y envía&#xa;confirmaciones (aprobado/rechazado)" style="rounded=1;whiteSpace=wrap;html=1;fillColor=#FFE6CC;strokeColor=#D79B00;fontColor=#000000;align=center;verticalAlign=middle;fontSize=12;fontStyle=0" vertex="1" parent="zrlMxklKueZQlDghgLl7-18">
          <mxGeometry x="1130" y="540" width="160" height="160" as="geometry" />
        </mxCell>
        <mxCell id="zrlMxklKueZQlDghgLl7-9" value="Gestiona solicitudes" style="endArrow=classic;html=1;rounded=0;exitX=0.5;exitY=1;exitDx=0;exitDy=0;" edge="1" parent="zrlMxklKueZQlDghgLl7-18" source="zrlMxklKueZQlDghgLl7-2" target="zrlMxklKueZQlDghgLl7-4">
          <mxGeometry width="50" height="50" relative="1" as="geometry">
            <mxPoint x="260" y="200" as="sourcePoint" />
            <mxPoint x="480" y="300" as="targetPoint" />
          </mxGeometry>
        </mxCell>
        <mxCell id="zrlMxklKueZQlDghgLl7-11" value="Invoca API (JSON/HTTPS)" style="endArrow=classic;html=1;rounded=0;exitX=0.5;exitY=1;exitDx=0;exitDy=0;entryX=0.5;entryY=0;entryDx=0;entryDy=0;" edge="1" parent="zrlMxklKueZQlDghgLl7-18" source="zrlMxklKueZQlDghgLl7-4" target="zrlMxklKueZQlDghgLl7-5">
          <mxGeometry width="50" height="50" relative="1" as="geometry">
            <mxPoint x="260" y="200" as="sourcePoint" />
            <mxPoint x="310" y="150" as="targetPoint" />
          </mxGeometry>
        </mxCell>
        <mxCell id="zrlMxklKueZQlDghgLl7-12" value="Lee/escribe datos (JDBC)" style="endArrow=classic;startArrow=classic;html=1;rounded=0;exitX=0;exitY=0.5;exitDx=0;exitDy=0;entryX=1;entryY=0.5;entryDx=0;entryDy=0;entryPerimeter=0;" edge="1" parent="zrlMxklKueZQlDghgLl7-18" source="zrlMxklKueZQlDghgLl7-5" target="zrlMxklKueZQlDghgLl7-6">
          <mxGeometry width="50" height="50" relative="1" as="geometry">
            <mxPoint x="260" y="200" as="sourcePoint" />
            <mxPoint x="310" y="150" as="targetPoint" />
          </mxGeometry>
        </mxCell>
        <mxCell id="zrlMxklKueZQlDghgLl7-13" value="Envía solicitudes (JSON/HTTP)" style="endArrow=classic;html=1;rounded=0;entryX=0.818;entryY=0.983;entryDx=0;entryDy=0;entryPerimeter=0;exitX=0.911;exitY=0.005;exitDx=0;exitDy=0;exitPerimeter=0;fontSize=12;" edge="1" parent="zrlMxklKueZQlDghgLl7-18" source="zrlMxklKueZQlDghgLl7-7" target="zrlMxklKueZQlDghgLl7-5">
          <mxGeometry width="50" height="50" relative="1" as="geometry">
            <mxPoint x="722" y="790" as="sourcePoint" />
            <mxPoint x="310" y="150" as="targetPoint" />
          </mxGeometry>
        </mxCell>
        <mxCell id="zrlMxklKueZQlDghgLl7-14" value="Notifica actualizaciones (JSON/HTTP)" style="endArrow=classic;html=1;rounded=0;exitX=0.25;exitY=1;exitDx=0;exitDy=0;entryX=0.123;entryY=0.018;entryDx=0;entryDy=0;entryPerimeter=0;fontSize=12;" edge="1" parent="zrlMxklKueZQlDghgLl7-18" source="zrlMxklKueZQlDghgLl7-5" target="zrlMxklKueZQlDghgLl7-7">
          <mxGeometry x="-0.0182" y="-19" width="50" height="50" relative="1" as="geometry">
            <mxPoint x="260" y="200" as="sourcePoint" />
            <mxPoint x="310" y="150" as="targetPoint" />
            <Array as="points" />
            <mxPoint as="offset" />
          </mxGeometry>
        </mxCell>
        <mxCell id="zrlMxklKueZQlDghgLl7-15" value="Solicita financiamiento (JSON/HTTP)" style="endArrow=classic;html=1;rounded=0;exitX=1;exitY=0.25;exitDx=0;exitDy=0;entryX=0;entryY=0.25;entryDx=0;entryDy=0;fontSize=12;" edge="1" parent="zrlMxklKueZQlDghgLl7-18" source="zrlMxklKueZQlDghgLl7-5" target="zrlMxklKueZQlDghgLl7-8">
          <mxGeometry width="50" height="50" relative="1" as="geometry">
            <mxPoint x="260" y="200" as="sourcePoint" />
            <mxPoint x="310" y="150" as="targetPoint" />
          </mxGeometry>
        </mxCell>
        <mxCell id="zrlMxklKueZQlDghgLl7-16" value="Envía confirmaciones (JSON/HTTP)" style="endArrow=classic;html=1;rounded=0;exitX=-0.026;exitY=0.634;exitDx=0;exitDy=0;entryX=1;entryY=0.75;entryDx=0;entryDy=0;exitPerimeter=0;fontSize=12;" edge="1" parent="zrlMxklKueZQlDghgLl7-18" source="zrlMxklKueZQlDghgLl7-8" target="zrlMxklKueZQlDghgLl7-5">
          <mxGeometry width="50" height="50" relative="1" as="geometry">
            <mxPoint x="260" y="200" as="sourcePoint" />
            <mxPoint x="310" y="150" as="targetPoint" />
          </mxGeometry>
        </mxCell>
        <mxCell id="zrlMxklKueZQlDghgLl7-17" value="Diagrama de Contenedores - Sistema de Gestión de Mantenimiento Urbano" style="text;strokeColor=none;fillColor=none;html=1;fontSize=20;fontStyle=1;verticalAlign=middle;align=center;" vertex="1" parent="zrlMxklKueZQlDghgLl7-18">
          <mxGeometry x="240" width="720" height="30" as="geometry" />
        </mxCell>
      </root>
    </mxGraphModel>
  </diagram>
</mxfile>
